<?xml version="1.0" encoding="UTF-8" standalone="no"?>
<svg
   xmlns:dc="http://purl.org/dc/elements/1.1/"
   xmlns:cc="http://creativecommons.org/ns#"
   xmlns:rdf="http://www.w3.org/1999/02/22-rdf-syntax-ns#"
   xmlns:svg="http://www.w3.org/2000/svg"
   xmlns="http://www.w3.org/2000/svg"
   xmlns:sodipodi="http://sodipodi.sourceforge.net/DTD/sodipodi-0.dtd"
   xmlns:inkscape="http://www.inkscape.org/namespaces/inkscape"
   version="1.1"
   id="Camada_1"
   x="0px"
   y="0px"
   viewBox="0 0 470.2 460.2"
   style="enable-background:new 0 0 470.2 460.2;"
   xml:space="preserve">
<style
   type="text/css"
   id="style2">
	.st0{fill:#00CC99;}
	.st1{fill:#99FFFF;}
	.st2{fill:#00FFFF;}
	.st3{fill:#0033CC;}
	.st4{fill:#66FFFF;}
	.st5{fill:#FFFFFF;}
	.st6{fill:#0000FF;}
	.st7{fill:#009999;}
	.st8{fill:#CBCBCB;}
	.st9{fill:#008080;}
	.st10{fill:#F8F8F8;}
	.st11{fill:#006699;}
	.st12{fill:#0066CC;}
	.st13{fill:#00CCCC;}
	.st14{fill:#9999FF;}
	.st15{fill:#0099CC;}
	.st16{fill:#808080;}
	.st17{fill:#D7D7D7;}
	.st18{fill:#E3E3E3;}
	.st19{fill:#5F5F5F;}
	.st20{fill:#CC0000;}
	.st21{fill:#800000;}
	.st22{fill:#FF0033;}
	.st23{fill:#B2B2B2;}
</style>
<path
   class="st5"
   d="M 166.5,19.60039 V 39.2 h -9.80078 v 19.59961 h 49 v 9.70117 166.50001 H 58.79883 V 254.6004 H 49 v 19.59961 h -9.80078 v 19.59961 h -9.80078 v 9.70117 H 49 v 9.79883 h 19.59961 v 9.80078 h 19.59961 v 9.80078 h 19.5 v 9.79883 h 19.59961 v 9.80078 h 19.59961 v 9.79883 H 166.5 v 9.80079 h 19.59961 v 9.80078 h 19.59961 v 9.79883 h 19.59961 v 9.80078 h 19.59961 v 9.79883 H 264.5 v 9.70117 h 19.59961 v 9.79883 h 19.59961 v 9.80076 H 313.5 V 421.0008 h 9.79883 v -19.5 H 333 v -19.59961 h 9.79883 v -19.60157 h 9.80078 v -19.59961 h 9.79883 V 323.1004 h 9.80078 V 303.50079 H 382 v -19.5 h 9.79883 v -19.59961 h 9.80078 v -19.60156 h 9.79883 v -19.59961 h 9.80078 V 205.6004 H 431 v -19.59961 h 9.79883 v -19.5 h 9.80078 V 156.7 H 431 v -9.79883 h -19.60156 v -9.80078 h -19.59961 v -9.80077 h -19.59961 v -9.79884 h -19.59961 v -9.80077 H 333 V 97.90118 H 313.5 V 88.10039 H 293.89844 V 78.29961 H 274.29883 V 68.50078 H 254.69922 V 58.79961 H 235.09961 V 49.00078 H 215.5 V 39.2 h -19.60156 v -9.79883 h -19.59961 v -9.80078 z"
   id="path471" /><path
   class="st5"
   d="M 9.8000002,68.5 H 195.90001 V 225.2 H 9.8000002 Z"
   id="path427" /><g
   id="g418">
	<polygon
   points="470.2,146.9 470.2,166.5 460.4,166.5 460.4,186 450.6,186 450.6,205.6 440.8,205.6 440.8,225.2 431,225.2    431,244.8 421.2,244.8 421.2,264.4 411.4,264.4 411.4,284 401.6,284 401.6,303.5 391.8,303.5 391.8,323.1 382,323.1 382,342.7    372.2,342.7 372.2,362.3 362.4,362.3 362.4,381.9 352.6,381.9 352.6,401.5 342.8,401.5 342.8,421 333,421 333,440.6 323.3,440.6    323.3,460.2 303.7,460.2 303.7,450.4 284.1,450.4 284.1,440.6 264.5,440.6 264.5,430.8 244.9,430.8 244.9,421 225.3,421    225.3,411.3 205.7,411.3 205.7,401.5 186.1,401.5 186.1,391.7 166.5,391.7 166.5,381.9 146.9,381.9 146.9,372.1 127.3,372.1    127.3,362.3 107.7,362.3 107.7,352.5 88.2,352.5 88.2,342.7 68.6,342.7 68.6,332.9 49,332.9 49,323.1 29.4,323.1 29.4,313.3    9.8,313.3 9.8,293.8 19.6,293.8 19.6,274.2 29.4,274.2 29.4,254.6 39.2,254.6 39.2,235 9.8,235 9.8,225.2 195.9,225.2 195.9,68.5    205.7,68.5 205.7,235 58.8,235 58.8,254.6 49,254.6 49,274.2 39.2,274.2 39.2,293.8 29.4,293.8 29.4,303.5 49,303.5 49,313.3    68.6,313.3 68.6,323.1 88.2,323.1 88.2,332.9 107.7,332.9 107.7,342.7 127.3,342.7 127.3,352.5 146.9,352.5 146.9,362.3    166.5,362.3 166.5,372.1 186.1,372.1 186.1,381.9 205.7,381.9 205.7,391.7 225.3,391.7 225.3,401.5 244.9,401.5 244.9,411.3    264.5,411.3 264.5,421 284.1,421 284.1,430.8 303.7,430.8 303.7,440.6 313.5,440.6 313.5,421 323.3,421 323.3,401.5 333,401.5    333,381.9 342.8,381.9 342.8,362.3 352.6,362.3 352.6,342.7 362.4,342.7 362.4,323.1 372.2,323.1 372.2,303.5 382,303.5 382,284    391.8,284 391.8,264.4 401.6,264.4 401.6,244.8 411.4,244.8 411.4,225.2 421.2,225.2 421.2,205.6 431,205.6 431,186 440.8,186    440.8,166.5 450.6,166.5 450.6,156.7 431,156.7 431,146.9 411.4,146.9 411.4,137.1 391.8,137.1 391.8,127.3 372.2,127.3    372.2,117.5 352.6,117.5 352.6,107.7 333,107.7 333,97.9 313.5,97.9 313.5,88.1 293.9,88.1 293.9,78.3 274.3,78.3 274.3,68.5    254.7,68.5 254.7,58.8 235.1,58.8 235.1,49 215.5,49 215.5,39.2 195.9,39.2 195.9,29.4 176.3,29.4 176.3,19.6 166.5,19.6    166.5,39.2 156.7,39.2 156.7,58.8 137.1,58.8 137.1,39.2 146.9,39.2 146.9,19.6 156.7,19.6 156.7,0 176.3,0 176.3,9.8 195.9,9.8    195.9,19.6 215.5,19.6 215.5,29.4 235.1,29.4 235.1,39.2 254.7,39.2 254.7,49 274.3,49 274.3,58.8 293.9,58.8 293.9,68.5    313.5,68.5 313.5,78.3 333,78.3 333,88.1 352.6,88.1 352.6,97.9 372.2,97.9 372.2,107.7 391.8,107.7 391.8,117.5 411.4,117.5    411.4,127.3 431,127.3 431,137.1 450.6,137.1 450.6,146.9  "
   id="polygon4" />
	<rect
   x="362.4"
   y="313.3"
   class="st0"
   width="9.8"
   height="9.8"
   id="rect6" />
	<rect
   x="264.5"
   y="362.3"
   class="st1"
   width="9.8"
   height="9.8"
   id="rect8" />
	<rect
   x="362.4"
   y="293.8"
   class="st2"
   width="19.6"
   height="9.8"
   id="rect10" />
	<polygon
   class="st2"
   points="382,264.4 382,274.2 372.2,274.2 372.2,284 362.4,284 362.4,274.2 352.6,274.2 352.6,264.4    362.4,264.4 362.4,254.6 372.2,254.6 372.2,264.4  "
   id="polygon12" />
	<rect
   x="78.3"
   y="235"
   class="st2"
   width="19.6"
   height="9.8"
   id="rect14" />
	<rect
   x="88.2"
   y="274.2"
   class="st3"
   width="9.8"
   height="9.8"
   id="rect16" />
	<rect
   x="88.2"
   y="254.6"
   class="st3"
   width="9.8"
   height="9.8"
   id="rect18" />
	<rect
   x="186.1"
   y="362.3"
   class="st1"
   width="9.8"
   height="9.8"
   id="rect20" />
	<rect
   x="176.3"
   y="352.5"
   class="st4"
   width="9.8"
   height="19.6"
   id="rect22" />
	<rect
   x="78.3"
   y="293.8"
   class="st3"
   width="9.8"
   height="9.8"
   id="rect24" />
	<rect
   x="78.3"
   y="303.5"
   class="st6"
   width="9.8"
   height="9.8"
   id="rect26" />
	<rect
   x="293.9"
   y="88.1"
   class="st4"
   width="9.8"
   height="19.6"
   id="rect28" />
	<rect
   x="284.1"
   y="88.1"
   class="st1"
   width="9.8"
   height="9.8"
   id="rect30" />
	<rect
   x="362.4"
   y="117.5"
   class="st7"
   width="9.8"
   height="9.8"
   id="rect32" />
	<rect
   x="98"
   y="235"
   class="st8"
   width="9.8"
   height="9.8"
   id="rect34" />
	<rect
   x="98"
   y="244.8"
   class="st1"
   width="9.8"
   height="9.8"
   id="rect36" />
	<rect
   x="146.9"
   y="352.5"
   class="st0"
   width="9.8"
   height="9.8"
   id="rect38" />
	<rect
   x="166.5"
   y="352.5"
   class="st2"
   width="9.8"
   height="19.6"
   id="rect40" />
	<rect
   x="342.8"
   y="107.7"
   class="st7"
   width="9.8"
   height="9.8"
   id="rect42" />
	<rect
   x="293.9"
   y="107.7"
   class="st2"
   width="9.8"
   height="9.8"
   id="rect44" />
	<polygon
   class="st9"
   points="362.4,117.5 362.4,127.3 352.6,127.3 352.6,137.1 342.8,137.1 342.8,117.5  "
   id="polygon46" />
	<rect
   x="333"
   y="107.7"
   class="st0"
   width="9.8"
   height="9.8"
   id="rect48" />
	<polygon
   class="st1"
   points="411.4,235 411.4,244.8 401.6,244.8 401.6,254.6 391.8,254.6 391.8,244.8 382,244.8 382,254.6    391.8,254.6 391.8,274.2 382,274.2 382,264.4 372.2,264.4 372.2,254.6 362.4,254.6 362.4,264.4 352.6,264.4 352.6,244.8    362.4,244.8 362.4,235 352.6,235 352.6,244.8 342.8,244.8 342.8,254.6 333,254.6 333,235 342.8,235 342.8,215.4 352.6,215.4    352.6,225.2 362.4,225.2 362.4,215.4 372.2,215.4 372.2,225.2 382,225.2 382,235  "
   id="polygon50" />
	<rect
   x="342.8"
   y="195.8"
   class="st10"
   width="9.8"
   height="9.8"
   id="rect52" />
	<rect
   x="342.8"
   y="176.3"
   class="st11"
   width="9.8"
   height="9.8"
   id="rect54" />
	<rect
   x="284.1"
   y="107.7"
   class="st4"
   width="9.8"
   height="9.8"
   id="rect56" />
	<rect
   x="244.9"
   y="107.7"
   class="st2"
   width="9.8"
   height="9.8"
   id="rect58" />
	<rect
   x="303.7"
   y="88.1"
   class="st2"
   width="9.8"
   height="19.6"
   id="rect60" />
	<rect
   x="352.6"
   y="137.1"
   class="st12"
   width="9.8"
   height="9.8"
   id="rect62" />
	<polygon
   class="st11"
   points="391.8,127.3 391.8,137.1 382,137.1 382,146.9 372.2,146.9 372.2,137.1 352.6,137.1 352.6,127.3  "
   id="polygon64" />
	<rect
   x="323.3"
   y="97.9"
   class="st0"
   width="9.8"
   height="9.8"
   id="rect66" />
	<polygon
   class="st2"
   points="293.9,97.9 293.9,107.7 284.1,107.7 284.1,117.5 274.3,117.5 274.3,107.7 264.5,107.7 264.5,97.9    274.3,97.9 274.3,88.1 284.1,88.1 284.1,97.9  "
   id="polygon68" />
	<rect
   x="352.6"
   y="323.1"
   class="st0"
   width="9.8"
   height="9.8"
   id="rect70" />
	<rect
   x="342.8"
   y="352.5"
   class="st7"
   width="9.8"
   height="9.8"
   id="rect72" />
	<rect
   x="352.6"
   y="332.9"
   class="st7"
   width="9.8"
   height="9.8"
   id="rect74" />
	<rect
   x="352.6"
   y="235"
   class="st2"
   width="9.8"
   height="9.8"
   id="rect76" />
	<rect
   x="352.6"
   y="205.6"
   class="st1"
   width="9.8"
   height="9.8"
   id="rect78" />
	<rect
   x="352.6"
   y="284"
   class="st2"
   width="9.8"
   height="9.8"
   id="rect80" />
	<rect
   x="352.6"
   y="274.2"
   class="st4"
   width="9.8"
   height="9.8"
   id="rect82" />
	<polygon
   class="st11"
   points="362.4,146.9 362.4,156.7 352.6,156.7 352.6,166.5 342.8,166.5 342.8,176.3 333,176.3 333,156.7    342.8,156.7 342.8,137.1 352.6,137.1 352.6,146.9  "
   id="polygon84" />
	<polygon
   class="st13"
   points="372.2,303.5 372.2,313.3 362.4,313.3 362.4,323.1 342.8,323.1 342.8,313.3 323.3,313.3 323.3,303.5    303.7,303.5 303.7,293.8 313.5,293.8 313.5,274.2 323.3,274.2 323.3,284 333,284 333,274.2 342.8,274.2 342.8,284 352.6,284    352.6,293.8 362.4,293.8 362.4,303.5  "
   id="polygon86" />
	<polygon
   class="st6"
   points="431,166.5 431,176.3 440.8,176.3 440.8,186 431,186 431,205.6 421.2,205.6 421.2,215.4 401.6,215.4    401.6,205.6 391.8,205.6 391.8,195.8 372.2,195.8 372.2,176.3 382,176.3 382,186 391.8,186 391.8,176.3 382,176.3 382,156.7    391.8,156.7 391.8,166.5 401.6,166.5 401.6,156.7 411.4,156.7 411.4,166.5 421.2,166.5 421.2,156.7 440.8,156.7 440.8,166.5  "
   id="polygon88" />
	<rect
   x="382"
   y="215.4"
   class="st1"
   width="19.6"
   height="9.8"
   id="rect90" />
	<rect
   x="382"
   y="176.3"
   class="st3"
   width="9.8"
   height="9.8"
   id="rect92" />
	<rect
   x="382"
   y="195.8"
   class="st3"
   width="9.8"
   height="9.8"
   id="rect94" />
	<polygon
   class="st3"
   points="333,362.3 333,401.5 313.5,401.5 313.5,391.7 323.3,391.7 323.3,381.9 313.5,381.9 313.5,372.1    293.9,372.1 293.9,362.3 274.3,362.3 274.3,352.5 284.1,352.5 284.1,342.7 293.9,342.7 293.9,332.9 303.7,332.9 303.7,342.7    313.5,342.7 313.5,352.5 323.3,352.5 323.3,362.3  "
   id="polygon96" />
	<rect
   x="58.8"
   y="293.8"
   class="st3"
   width="9.8"
   height="9.8"
   id="rect98" />
	<rect
   x="58.8"
   y="303.5"
   class="st6"
   width="9.8"
   height="9.8"
   id="rect100" />
	<rect
   x="58.8"
   y="235"
   class="st8"
   width="19.6"
   height="9.8"
   id="rect102" />
	<polygon
   class="st6"
   points="107.7,264.4 107.7,284 98,284 98,274.2 88.2,274.2 88.2,284 98,284 98,303.5 88.2,303.5 88.2,293.8    78.3,293.8 78.3,303.5 68.6,303.5 68.6,293.8 58.8,293.8 58.8,303.5 39.2,303.5 39.2,293.8 49,293.8 49,284 39.2,284 39.2,274.2    49,274.2 49,254.6 58.8,254.6 58.8,244.8 78.3,244.8 78.3,254.6 88.2,254.6 88.2,264.4  "
   id="polygon104" />
	<polygon
   class="st3"
   points="411.4,137.1 411.4,156.7 401.6,156.7 401.6,146.9 391.8,146.9 391.8,156.7 382,156.7 382,176.3    372.2,176.3 372.2,195.8 362.4,195.8 362.4,186 352.6,186 352.6,176.3 342.8,176.3 342.8,166.5 352.6,166.5 352.6,156.7    362.4,156.7 362.4,137.1 372.2,137.1 372.2,146.9 382,146.9 382,137.1  "
   id="polygon106" />
	<rect
   x="372.2"
   y="195.8"
   class="st1"
   width="9.8"
   height="9.8"
   id="rect108" />
	<polygon
   class="st11"
   points="342.8,342.7 342.8,381.9 333,381.9 333,362.3 323.3,362.3 323.3,352.5 333,352.5 333,342.7  "
   id="polygon110" />
	<rect
   x="284.1"
   y="372.1"
   class="st3"
   width="9.8"
   height="9.8"
   id="rect112" />
	<rect
   x="264.5"
   y="372.1"
   class="st3"
   width="9.8"
   height="9.8"
   id="rect114" />
	<rect
   x="244.9"
   y="372.1"
   class="st1"
   width="9.8"
   height="19.6"
   id="rect116" />
	<rect
   x="372.2"
   y="274.2"
   class="st1"
   width="9.8"
   height="9.8"
   id="rect118" />
	<rect
   x="362.4"
   y="284"
   class="st4"
   width="19.6"
   height="9.8"
   id="rect120" />
	<polygon
   class="st1"
   points="244.9,342.7 244.9,352.5 254.7,352.5 254.7,362.3 244.9,362.3 244.9,372.1 235.1,372.1 235.1,391.7    215.5,391.7 215.5,381.9 225.3,381.9 225.3,372.1 215.5,372.1 215.5,381.9 195.9,381.9 195.9,372.1 205.7,372.1 205.7,362.3    215.5,362.3 215.5,352.5 205.7,352.5 205.7,342.7 225.3,342.7 225.3,352.5 235.1,352.5 235.1,342.7 225.3,342.7 225.3,332.9    215.5,332.9 215.5,323.1 235.1,323.1 235.1,332.9 254.7,332.9 254.7,342.7  "
   id="polygon122" />
	<rect
   x="303.7"
   y="381.9"
   class="st3"
   width="9.8"
   height="9.8"
   id="rect124" />
	<rect
   x="313.5"
   y="381.9"
   class="st6"
   width="9.8"
   height="9.8"
   id="rect126" />
	<polygon
   class="st3"
   points="137.1,284 137.1,293.8 127.3,293.8 127.3,303.5 117.5,303.5 117.5,313.3 107.7,313.3 107.7,323.1    68.6,323.1 68.6,303.5 78.3,303.5 78.3,313.3 88.2,313.3 88.2,303.5 98,303.5 98,284 107.7,284 107.7,264.4 117.5,264.4    117.5,274.2 127.3,274.2 127.3,284  "
   id="polygon128" />
	<polygon
   class="st13"
   points="186.1,313.3 186.1,323.1 195.9,323.1 195.9,332.9 186.1,332.9 186.1,342.7 176.3,342.7 176.3,352.5    166.5,352.5 166.5,362.3 156.7,362.3 156.7,352.5 146.9,352.5 146.9,332.9 156.7,332.9 156.7,313.3 166.5,313.3 166.5,293.8    176.3,293.8 176.3,303.5 195.9,303.5 195.9,313.3  "
   id="polygon130" />
	<rect
   x="254.7"
   y="293.8"
   class="st6"
   width="19.6"
   height="9.8"
   id="rect132" />
	<rect
   x="244.9"
   y="293.8"
   class="st14"
   width="9.8"
   height="9.8"
   id="rect134" />
	<rect
   x="225.3"
   y="156.7"
   class="st6"
   width="19.6"
   height="9.8"
   id="rect136" />
	<rect
   x="293.9"
   y="195.8"
   class="st14"
   width="9.8"
   height="9.8"
   id="rect138" />
	<rect
   x="244.9"
   y="166.5"
   class="st6"
   width="19.6"
   height="9.8"
   id="rect140" />
	<rect
   x="235.1"
   y="166.5"
   class="st14"
   width="9.8"
   height="9.8"
   id="rect142" />
	<rect
   x="284.1"
   y="186"
   class="st6"
   width="19.6"
   height="9.8"
   id="rect144" />
	<rect
   x="274.3"
   y="225.2"
   class="st6"
   width="19.6"
   height="9.8"
   id="rect146" />
	<rect
   x="284.1"
   y="235"
   class="st14"
   width="9.8"
   height="9.8"
   id="rect148" />
	<rect
   x="303.7"
   y="195.8"
   class="st6"
   width="19.6"
   height="9.8"
   id="rect150" />
	<polygon
   class="st13"
   points="333,107.7 333,137.1 323.3,137.1 323.3,146.9 313.5,146.9 313.5,166.5 303.7,166.5 303.7,156.7    284.1,156.7 284.1,146.9 293.9,146.9 293.9,137.1 284.1,137.1 284.1,127.3 293.9,127.3 293.9,117.5 303.7,117.5 303.7,107.7    313.5,107.7 313.5,97.9 323.3,97.9 323.3,107.7  "
   id="polygon152" />
	<rect
   x="293.9"
   y="235"
   class="st6"
   width="19.6"
   height="9.8"
   id="rect154" />
	<rect
   x="146.9"
   y="284"
   class="st9"
   width="9.8"
   height="19.6"
   id="rect156" />
	<rect
   x="215.5"
   y="195.8"
   class="st6"
   width="19.6"
   height="9.8"
   id="rect158" />
	<rect
   x="254.7"
   y="254.6"
   class="st6"
   width="19.6"
   height="9.8"
   id="rect160" />
	<rect
   x="264.5"
   y="264.4"
   class="st14"
   width="9.8"
   height="9.8"
   id="rect162" />
	<rect
   x="264.5"
   y="225.2"
   class="st14"
   width="9.8"
   height="9.8"
   id="rect164" />
	<rect
   x="254.7"
   y="215.4"
   class="st6"
   width="19.6"
   height="9.8"
   id="rect166" />
	<rect
   x="176.3"
   y="254.6"
   class="st6"
   width="19.6"
   height="9.8"
   id="rect168" />
	<rect
   x="205.7"
   y="264.4"
   class="st6"
   width="9.8"
   height="9.8"
   id="rect170" />
	<rect
   x="235.1"
   y="244.8"
   class="st6"
   width="19.6"
   height="9.8"
   id="rect172" />
	<rect
   x="225.3"
   y="244.8"
   class="st14"
   width="9.8"
   height="9.8"
   id="rect174" />
	<rect
   x="225.3"
   y="235"
   class="st6"
   width="9.8"
   height="9.8"
   id="rect176" />
	<rect
   x="244.9"
   y="254.6"
   class="st14"
   width="9.8"
   height="9.8"
   id="rect178" />
	<rect
   x="244.9"
   y="215.4"
   class="st14"
   width="9.8"
   height="9.8"
   id="rect180" />
	<rect
   x="244.9"
   y="205.6"
   class="st6"
   width="9.8"
   height="9.8"
   id="rect182" />
	<rect
   x="264.5"
   y="176.3"
   class="st6"
   width="19.6"
   height="9.8"
   id="rect184" />
	<rect
   x="254.7"
   y="176.3"
   class="st14"
   width="9.8"
   height="9.8"
   id="rect186" />
	<rect
   x="235.1"
   y="284"
   class="st6"
   width="19.6"
   height="9.8"
   id="rect188" />
	<rect
   x="225.3"
   y="284"
   class="st14"
   width="9.8"
   height="9.8"
   id="rect190" />
	<rect
   x="274.3"
   y="186"
   class="st14"
   width="9.8"
   height="9.8"
   id="rect192" />
	<rect
   x="274.3"
   y="264.4"
   class="st6"
   width="19.6"
   height="9.8"
   id="rect194" />
	<rect
   x="342.8"
   y="244.8"
   class="st2"
   width="9.8"
   height="19.6"
   id="rect196" />
	<rect
   x="215.5"
   y="274.2"
   class="st6"
   width="19.6"
   height="9.8"
   id="rect198" />
	<rect
   x="205.7"
   y="274.2"
   class="st14"
   width="9.8"
   height="9.8"
   id="rect200" />
	<polygon
   class="st7"
   points="342.8,313.3 342.8,323.1 313.5,323.1 313.5,313.3 303.7,313.3 303.7,303.5 323.3,303.5 323.3,313.3     "
   id="polygon202" />
	<rect
   x="264.5"
   y="332.9"
   class="st10"
   width="9.8"
   height="9.8"
   id="rect204" />
	<polygon
   class="st2"
   points="342.8,264.4 342.8,274.2 333,274.2 333,284 323.3,284 323.3,264.4  "
   id="polygon206" />
	<rect
   x="284.1"
   y="332.9"
   class="st11"
   width="9.8"
   height="9.8"
   id="rect208" />
	<polygon
   class="st9"
   points="352.6,332.9 352.6,352.5 342.8,352.5 342.8,342.7 333,342.7 333,332.9  "
   id="polygon210" />
	<rect
   x="333"
   y="323.1"
   class="st15"
   width="9.8"
   height="9.8"
   id="rect212" />
	<rect
   x="333"
   y="127.3"
   class="st15"
   width="9.8"
   height="9.8"
   id="rect214" />
	<rect
   x="333"
   y="117.5"
   class="st7"
   width="9.8"
   height="9.8"
   id="rect216" />
	<rect
   x="274.3"
   y="117.5"
   class="st4"
   width="9.8"
   height="9.8"
   id="rect218" />
	<rect
   x="284.1"
   y="117.5"
   class="st1"
   width="9.8"
   height="9.8"
   id="rect220" />
	<rect
   x="333"
   y="137.1"
   class="st9"
   width="9.8"
   height="19.6"
   id="rect222" />
	<rect
   x="323.3"
   y="254.6"
   class="st4"
   width="19.6"
   height="9.8"
   id="rect224" />
	<rect
   x="117.5"
   y="244.8"
   class="st1"
   width="9.8"
   height="9.8"
   id="rect226" />
	<rect
   x="117.5"
   y="235"
   class="st8"
   width="9.8"
   height="9.8"
   id="rect228" />
	<rect
   x="205.7"
   y="332.9"
   class="st2"
   width="19.6"
   height="9.8"
   id="rect230" />
	<rect
   x="186.1"
   y="332.9"
   class="st1"
   width="9.8"
   height="9.8"
   id="rect232" />
	<rect
   x="195.9"
   y="332.9"
   class="st4"
   width="9.8"
   height="9.8"
   id="rect234" />
	<rect
   x="117.5"
   y="313.3"
   class="st12"
   width="9.8"
   height="9.8"
   id="rect236" />
	<rect
   x="137.1"
   y="332.9"
   class="st7"
   width="9.8"
   height="9.8"
   id="rect238" />
	<polygon
   class="st2"
   points="215.5,352.5 215.5,362.3 205.7,362.3 205.7,372.1 195.9,372.1 195.9,362.3 186.1,362.3 186.1,352.5    195.9,352.5 195.9,342.7 205.7,342.7 205.7,352.5  "
   id="polygon240" />
	<rect
   x="176.3"
   y="342.7"
   class="st2"
   width="9.8"
   height="9.8"
   id="rect242" />
	<rect
   x="254.7"
   y="342.7"
   class="st1"
   width="9.8"
   height="9.8"
   id="rect244" />
	<rect
   x="225.3"
   y="342.7"
   class="st2"
   width="9.8"
   height="9.8"
   id="rect246" />
	<rect
   x="186.1"
   y="342.7"
   class="st4"
   width="9.8"
   height="9.8"
   id="rect248" />
	<rect
   x="254.7"
   y="117.5"
   class="st2"
   width="19.6"
   height="9.8"
   id="rect250" />
	<rect
   x="127.3"
   y="342.7"
   class="st7"
   width="9.8"
   height="9.8"
   id="rect252" />
	<rect
   x="107.7"
   y="332.9"
   class="st7"
   width="9.8"
   height="9.8"
   id="rect254" />
	<rect
   x="137.1"
   y="342.7"
   class="st0"
   width="9.8"
   height="9.8"
   id="rect256" />
	<rect
   x="342.8"
   y="264.4"
   class="st4"
   width="9.8"
   height="9.8"
   id="rect258" />
	<rect
   x="342.8"
   y="274.2"
   class="st1"
   width="9.8"
   height="9.8"
   id="rect260" />
	<rect
   x="342.8"
   y="323.1"
   class="st7"
   width="9.8"
   height="9.8"
   id="rect262" />
	<polygon
   class="st11"
   points="333,332.9 333,342.7 323.3,342.7 323.3,352.5 313.5,352.5 313.5,342.7 303.7,342.7 303.7,332.9    293.9,332.9 293.9,323.1 313.5,323.1 313.5,332.9  "
   id="polygon264" />
	<rect
   x="323.3"
   y="342.7"
   class="st12"
   width="9.8"
   height="9.8"
   id="rect266" />
	<polygon
   class="st1"
   points="284.1,78.3 284.1,88.1 274.3,88.1 274.3,97.9 264.5,97.9 264.5,107.7 274.3,107.7 274.3,117.5    254.7,117.5 254.7,107.7 244.9,107.7 244.9,117.5 254.7,117.5 254.7,127.3 264.5,127.3 264.5,137.1 244.9,137.1 244.9,127.3    225.3,127.3 225.3,117.5 235.1,117.5 235.1,107.7 225.3,107.7 225.3,97.9 235.1,97.9 235.1,88.1 244.9,88.1 244.9,68.5 264.5,68.5    264.5,78.3 254.7,78.3 254.7,88.1 264.5,88.1 264.5,78.3  "
   id="polygon268" />
	<rect
   x="107.7"
   y="235"
   class="st2"
   width="9.8"
   height="9.8"
   id="rect270" />
	<polygon
   class="st11"
   points="127.3,323.1 127.3,332.9 88.2,332.9 88.2,323.1 107.7,323.1 107.7,313.3 117.5,313.3 117.5,323.1     "
   id="polygon272" />
	<polygon
   class="st7"
   points="333,137.1 333,156.7 323.3,156.7 323.3,166.5 313.5,166.5 313.5,146.9 323.3,146.9 323.3,137.1  "
   id="polygon274" />
	<rect
   x="137.1"
   y="303.5"
   class="st9"
   width="9.8"
   height="19.6"
   id="rect276" />
	<polygon
   class="st11"
   points="146.9,284 146.9,303.5 137.1,303.5 137.1,323.1 127.3,323.1 127.3,313.3 117.5,313.3 117.5,303.5    127.3,303.5 127.3,293.8 137.1,293.8 137.1,284  "
   id="polygon278" />
	<polygon
   class="st2"
   points="205.7,313.3 205.7,332.9 195.9,332.9 195.9,323.1 186.1,323.1 186.1,313.3  "
   id="polygon280" />
	<rect
   x="137.1"
   y="235"
   class="st8"
   width="78.4"
   height="9.8"
   id="rect282" />
	<rect
   x="293.9"
   y="313.3"
   class="st9"
   width="19.6"
   height="9.8"
   id="rect284" />
	<rect
   x="323.3"
   y="156.7"
   class="st9"
   width="9.8"
   height="19.6"
   id="rect286" />
	<polygon
   class="st2"
   points="293.9,137.1 293.9,146.9 274.3,146.9 274.3,127.3 284.1,127.3 284.1,137.1  "
   id="polygon288" />
	<rect
   x="264.5"
   y="127.3"
   class="st4"
   width="9.8"
   height="19.6"
   id="rect290" />
	<polygon
   class="st9"
   points="137.1,323.1 137.1,342.7 117.5,342.7 117.5,332.9 127.3,332.9 127.3,323.1  "
   id="polygon292" />
	<rect
   x="137.1"
   y="323.1"
   class="st15"
   width="9.8"
   height="9.8"
   id="rect294" />
	<polygon
   class="st7"
   points="166.5,293.8 166.5,313.3 156.7,313.3 156.7,332.9 146.9,332.9 146.9,303.5 156.7,303.5 156.7,293.8     "
   id="polygon296" />
	<rect
   x="127.3"
   y="235"
   class="st2"
   width="9.8"
   height="9.8"
   id="rect298" />
	<rect
   x="127.3"
   y="254.6"
   class="st10"
   width="9.8"
   height="9.8"
   id="rect300" />
	<rect
   x="127.3"
   y="274.2"
   class="st11"
   width="9.8"
   height="9.8"
   id="rect302" />
	<rect
   x="313.5"
   y="323.1"
   class="st9"
   width="19.6"
   height="9.8"
   id="rect304" />
	<rect
   x="205.7"
   y="313.3"
   class="st4"
   width="9.8"
   height="19.6"
   id="rect306" />
	<rect
   x="440.8"
   y="156.7"
   class="st3"
   width="9.8"
   height="9.8"
   id="rect308" />
	<rect
   x="166.5"
   y="19.6"
   class="st3"
   width="9.8"
   height="9.8"
   id="rect310" />
	<rect
   x="431"
   y="166.5"
   class="st3"
   width="9.8"
   height="9.8"
   id="rect312" />
	<rect
   x="39.2"
   y="284"
   class="st3"
   width="9.8"
   height="9.8"
   id="rect314" />
	<rect
   x="156.7"
   y="49"
   class="st6"
   width="9.8"
   height="9.8"
   id="rect316" />
	<rect
   x="166.5"
   y="49"
   class="st3"
   width="9.8"
   height="9.8"
   id="rect318" />
	<rect
   x="225.3"
   y="49"
   class="st1"
   width="9.8"
   height="9.8"
   id="rect320" />
	<rect
   x="313.5"
   y="411.3"
   class="st3"
   width="9.8"
   height="9.8"
   id="rect322" />
	<rect
   x="411.4"
   y="215.4"
   class="st1"
   width="9.8"
   height="9.8"
   id="rect324" />
	<rect
   x="391.8"
   y="156.7"
   class="st3"
   width="9.8"
   height="9.8"
   id="rect326" />
	<rect
   x="391.8"
   y="146.9"
   class="st6"
   width="9.8"
   height="9.8"
   id="rect328" />
	<rect
   x="215.5"
   y="107.7"
   class="st1"
   width="9.8"
   height="9.8"
   id="rect330" />
	<polygon
   class="st1"
   points="235.1,68.5 235.1,88.1 215.5,88.1 215.5,78.3 225.3,78.3 225.3,68.5  "
   id="polygon332" />
	<rect
   x="215.5"
   y="156.7"
   class="st14"
   width="9.8"
   height="9.8"
   id="rect334" />
	<rect
   x="205.7"
   y="88.1"
   class="st2"
   width="9.8"
   height="9.8"
   id="rect336" />
	<rect
   x="205.7"
   y="97.9"
   class="st8"
   width="9.8"
   height="49"
   id="rect338" />
	<rect
   x="205.7"
   y="68.5"
   class="st3"
   width="9.8"
   height="19.6"
   id="rect340" />
	<rect
   x="205.7"
   y="146.9"
   class="st6"
   width="19.6"
   height="9.8"
   id="rect342" />
	<rect
   x="205.7"
   y="225.2"
   class="st6"
   width="9.8"
   height="9.8"
   id="rect344" />
	<rect
   x="205.7"
   y="156.7"
   class="st8"
   width="9.8"
   height="68.5"
   id="rect346" />
	<rect
   x="313.5"
   y="401.5"
   class="st6"
   width="9.8"
   height="9.8"
   id="rect348" />
	<rect
   x="303.7"
   y="401.5"
   class="st3"
   width="9.8"
   height="9.8"
   id="rect350" />
	<rect
   x="49"
   y="303.5"
   class="st3"
   width="9.8"
   height="9.8"
   id="rect352" />
	<rect
   x="244.9"
   y="401.5"
   class="st1"
   width="9.8"
   height="9.8"
   id="rect354" />
	<polygon
   class="st6"
   points="303.7,381.9 303.7,391.7 313.5,391.7 313.5,401.5 303.7,401.5 303.7,411.3 313.5,411.3 313.5,430.8    303.7,430.8 303.7,421 293.9,421 293.9,430.8 284.1,430.8 284.1,421 264.5,421 264.5,411.3 254.7,411.3 254.7,391.7 264.5,391.7    264.5,381.9 274.3,381.9 274.3,362.3 293.9,362.3 293.9,372.1 284.1,372.1 284.1,381.9 293.9,381.9 293.9,372.1 313.5,372.1    313.5,381.9  "
   id="polygon356" />
	<rect
   x="176.3"
   y="29.4"
   class="st3"
   width="9.8"
   height="9.8"
   id="rect358" />
	<rect
   x="421.2"
   y="146.9"
   class="st3"
   width="9.8"
   height="9.8"
   id="rect360" />
	<rect
   x="411.4"
   y="156.7"
   class="st3"
   width="9.8"
   height="9.8"
   id="rect362" />
	<rect
   x="303.7"
   y="430.8"
   class="st3"
   width="9.8"
   height="9.8"
   id="rect364" />
	<polygon
   class="st6"
   points="225.3,49 225.3,68.5 205.7,68.5 205.7,58.8 176.3,58.8 176.3,49 166.5,49 166.5,29.4 176.3,29.4    176.3,39.2 186.1,39.2 186.1,29.4 195.9,29.4 195.9,39.2 215.5,39.2 215.5,49  "
   id="polygon366" />
	<rect
   x="156.7"
   y="39.2"
   class="st3"
   width="9.8"
   height="9.8"
   id="rect368" />
	<rect
   x="411.4"
   y="146.9"
   class="st6"
   width="9.8"
   height="9.8"
   id="rect370" />
	<rect
   x="293.9"
   y="421"
   class="st3"
   width="9.8"
   height="9.8"
   id="rect372" />
	<rect
   x="29.4"
   y="293.8"
   class="st3"
   width="9.8"
   height="9.8"
   id="rect374" />
	<rect
   x="39.2"
   y="107.7"
   class="st2"
   width="127.4"
   height="88.1"
   id="rect376" />
	<polygon
   class="st16"
   points="176.3,97.9 176.3,205.6 29.4,205.6 29.4,195.8 166.5,195.8 166.5,97.9  "
   id="polygon378" />
	<rect
   x="19.6"
   y="78.3"
   class="st17"
   width="9.8"
   height="9.8"
   id="rect380" />
	<polygon
   class="st18"
   points="186.1,78.3 186.1,215.4 19.6,215.4 19.6,205.6 176.3,205.6 176.3,88.1 29.4,88.1 29.4,78.3  "
   id="polygon382" />
	<polygon
   class="st19"
   points="176.3,88.1 176.3,97.9 29.4,97.9 29.4,205.6 19.6,205.6 19.6,88.1  "
   id="polygon384" />
	<polygon
   class="st15"
   points="166.5,97.9 166.5,107.7 39.2,107.7 39.2,195.8 29.4,195.8 29.4,97.9  "
   id="polygon386" />
	<polygon
   class="st16"
   points="205.7,58.8 205.7,68.5 9.8,68.5 9.8,235 0,235 0,58.8  "
   id="polygon388" />
	<g
   id="g414">
		<rect
   x="127.3"
   y="117.5"
   class="st20"
   width="29.4"
   height="9.8"
   id="rect390" />
		<polygon
   class="st21"
   points="117.5,127.3 117.5,146.9 97.9,146.9 97.9,117.5 107.7,117.5 107.7,127.3   "
   id="polygon392" />
		<rect
   x="78.3"
   y="117.5"
   class="st20"
   width="19.6"
   height="9.8"
   id="rect394" />
		<rect
   x="58.8"
   y="166.5"
   class="st21"
   width="9.8"
   height="9.8"
   id="rect396" />
		<polygon
   class="st22"
   points="97.9,127.3 97.9,146.9 88.1,146.9 88.1,156.7 78.4,156.7 78.4,166.5 58.8,166.5 58.8,137.1     78.3,137.1 78.3,127.3   "
   id="polygon398" />
		<polygon
   class="st20"
   points="146.9,146.9 146.9,166.5 127.3,166.5 127.3,176.3 68.6,176.3 68.6,166.5 78.4,166.5 78.4,156.7     88.1,156.7 88.1,146.9   "
   id="polygon400" />
		<rect
   x="127.3"
   y="176.3"
   class="st15"
   width="9.8"
   height="9.8"
   id="rect402" />
		<rect
   x="49"
   y="137.1"
   class="st20"
   width="9.8"
   height="29.4"
   id="rect404" />
		<rect
   x="58.8"
   y="127.3"
   class="st20"
   width="19.6"
   height="9.8"
   id="rect406" />
		<rect
   x="68.6"
   y="176.3"
   class="st21"
   width="58.8"
   height="9.8"
   id="rect408" />
		<rect
   x="146.9"
   y="146.9"
   class="st21"
   width="9.8"
   height="19.6"
   id="rect410" />
		<rect
   x="127.3"
   y="166.5"
   class="st21"
   width="19.6"
   height="9.8"
   id="rect412" />
	</g>
	<polygon
   class="st23"
   points="195.9,78.3 195.9,225.2 9.8,225.2 9.8,215.4 186.1,215.4 186.1,78.3  "
   id="polygon416" />
</g>
</svg>
