<svg
   xmlns="http://www.w3.org/2000/svg"
   viewBox="0 0 690 644.409">
  <g>
    <path
       fill="#ffffff"
       d="m 505.88308,114.85385 v 11.39771 h 11.39773 v 11.39771 h 11.39773 v 35.06987 h -11.39773 v 22.79543 h -11.39773 v 22.79542 h -11.3977 v 22.79542 h -11.39769 v 23.67216 h -11.39774 v 11.39771 h -12.27443 v 11.3977 h -34.19316 v -11.3977 h -22.79542 v -11.39771 h -22.79543 v -11.39771 h -23.67218 v -12.27445 h -22.7954 v -11.39772 h -22.79544 v -11.3977 h -22.79543 v -22.79542 h -11.39771 v 11.39771 h -23.67217 v 11.39771 h -34.19314 v 11.3977 h -22.79543 v 11.39772 h -35.06988 v 12.27445 H 137.6493 v 11.39771 h -34.19313 v 11.39771 H 80.660738 v 11.3977 H 68.386277 v 34.19313 h 12.274461 v 23.67217 h 11.397714 v 22.79544 h 11.397718 v 22.79543 h 11.3977 v 34.19312 h 11.39772 v 23.67219 h 11.39771 v 22.79539 h 11.39772 v 34.19311 h 11.39771 v 22.79546 h 11.39771 v 23.67212 h 12.27446 v 34.19311 h 11.39771 v 22.79546 h 11.39772 v 11.3977 h 11.39771 22.79542 v -11.3977 h 35.06989 v -11.39773 h 34.19314 v -11.39773 h 34.19313 v -11.39769 h 23.67218 v -11.39773 h 34.19314 v -11.39769 h 34.19312 v -11.39769 h 22.79546 v -12.27443 h 35.06986 v -11.39773 h 22.79543 v -11.39773 h 34.19316 v -11.39769 h 35.06986 v -11.39769 h 22.79542 v -11.39773 h 34.19312 v -11.3977 h 23.67217 v -46.46761 h -11.3977 v -22.79539 h -12.27447 v -22.79543 h -11.39769 v -22.79544 h -11.3977 v -35.06987 h -11.39773 v -22.79543 h -11.39769 v -22.79541 h -11.39773 v -35.06988 h -11.3977 V 206.91228 H 563.7484 v -22.79543 h -12.27443 v -35.06987 h -11.39774 v -22.79542 h -11.39769 v -11.39771 z" />
    <path
       fill="#ffffff"
       d="m 355.95933,80.660716 v 22.795424 h -11.39771 v 22.79542 h -11.39769 v 22.79542 H 321.7662 v 23.67216 h -11.39771 v 34.19314 h 22.79544 v 11.39771 h 22.7954 v 11.3977 h 23.67218 v 11.39772 h 22.79543 v 12.27445 h 22.79542 v 11.39771 h 34.19316 v -23.67216 h 12.27443 v -22.79542 h 11.39774 v -22.79542 h 11.39769 v -22.79543 h 11.3977 V 137.64927 H 483.08769 V 126.25156 H 459.41552 V 114.85385 H 436.62006 V 103.45614 H 413.82463 V 92.058427 H 391.02924 V 80.660716 H 368.2338 Z" />
    <path
       fill="#ffffff"
       d="M 149.04701,22.795422 V 34.193131 H 114.85387 V 45.59084 H 92.058452 V 57.865298 H 68.386277 V 69.263006 H 45.59085 v 11.39771 H 22.795427 v 22.795424 h 11.397711 v 34.19313 H 45.59085 v 23.67217 h 11.397713 v 22.79541 h 11.397714 v 22.79543 h 35.069893 v -11.39771 h 22.79542 v -11.39772 h 22.79542 v -11.39771 h 22.79542 v -11.3977 h 23.67218 v -12.27446 h 22.79542 V 114.85385 H 206.91232 V 92.058427 H 195.51461 V 69.263006 H 184.11689 V 45.59084 H 171.84243 V 22.795422 Z" />
    <path
       fill="#000000"
       d="M 137.64929,0 V 11.397709 H 114.85387 V 22.795422 H 92.058452 V 34.193131 H 68.386277 V 45.59084 H 45.59085 V 57.865298 H 22.795427 V 69.263006 H 0 v 45.590844 h 11.397712 v 22.79542 h 11.397715 v 23.67217 h 11.397711 v 22.79541 H 45.59085 v 22.79543 h 11.397713 v 22.79541 h 46.467607 v -11.3977 h 22.79542 v -11.39771 h 22.79542 v -11.39771 h 22.79542 v -11.39772 h 23.67218 v -11.39771 h 22.79542 v -11.3977 h 22.79543 V 114.85385 H 229.70774 V 92.058427 H 218.31003 V 69.263006 H 206.91232 V 45.59084 H 195.51461 V 22.795422 H 184.11689 V 0 Z m 11.39772,22.795422 h 22.79542 V 45.59084 h 12.27446 v 23.672166 h 11.39772 v 22.795421 h 11.39771 v 22.795423 h 11.39771 v 34.19313 h -22.79542 v 12.27446 h -23.67218 v 11.3977 h -22.79542 v 11.39771 h -22.79542 v 11.39772 h -22.79542 v 11.39771 H 68.386277 V 184.11685 H 56.988563 V 161.32144 H 45.59085 V 137.64927 H 34.193138 V 103.45614 H 22.795427 V 80.660716 H 45.59085 V 69.263006 H 68.386277 V 57.865298 H 92.058452 V 45.59084 H 114.85387 V 34.193131 h 34.19314 z" />
    <path
       fill="#000000"
       d="m 137.64929,57.865298 v 11.397708 h 22.79543 V 57.865298 Z m 0,11.397708 h -22.79542 v 11.39771 h 22.79542 z m -22.79542,11.39771 H 92.058452 V 92.058427 H 114.85387 Z M 92.058452,92.058427 H 68.386277 V 103.45614 H 92.058452 Z M 68.386277,103.45614 H 56.988563 v 22.79542 h 11.397714 z m 0,22.79542 v 22.79542 h 12.274461 v -22.79542 z m 12.274461,22.79542 v 23.67216 h 11.397714 v -23.67216 z" />
    <path
       fill="#868a8e"
       d="m 160.44472,22.795422 v 11.397709 h 11.39771 V 22.795422 Z M 114.85387,34.193131 V 45.59084 h 11.39772 V 34.193131 Z M 92.058452,45.59084 V 57.865298 H 103.45617 V 45.59084 Z M 68.386277,57.865298 V 69.263006 H 80.660738 V 57.865298 Z M 22.795427,80.660716 V 92.058427 H 34.193138 V 80.660716 Z M 206.91232,114.85385 v 11.39771 h 11.39771 V 114.85385 Z M 34.193138,126.25156 v 11.39771 H 45.59085 v -11.39771 z m 172.719182,11.39771 v 11.39771 h 11.39771 v -11.39771 z m -92.05845,46.46758 v 11.39772 h 11.39772 v -11.39772 z m -46.467593,11.39772 v 11.39771 h 12.274461 v -11.39771 z m 23.672175,0 v 11.39771 h 11.397718 v -11.39771 z" />
    <path
       fill="#868a8e"
       d="m 184.11689,11.397709 v 11.397713 h 11.39772 V 11.397709 Z m 11.39772,11.397713 V 45.59084 h 11.39771 V 22.795422 Z m 11.39771,22.795418 v 23.672166 h 11.39771 V 45.59084 Z m 11.39771,23.672166 v 22.795421 h 11.39771 V 69.263006 Z m 11.39771,22.795421 v 22.795423 h 11.39772 V 92.058427 Z m 11.39772,34.193133 v 35.06988 h 11.39771 v -35.06988 z m 0,35.06988 h -22.79543 v 11.3977 h 22.79543 z m -22.79543,11.3977 h -22.79542 v 11.39771 h 22.79542 z m -22.79542,11.39771 h -23.67218 v 11.39772 h 23.67218 z m -23.67218,11.39772 h -22.79542 v 11.39771 h 22.79542 z m -22.79542,11.39771 h -22.79542 v 11.39771 h 22.79542 z m -22.79542,11.39771 h -22.79542 v 11.3977 h 22.79542 z" />
    <path
       fill="#868a8e"
       d="m 126.25159,57.865298 v 11.397708 h 11.3977 V 57.865298 Z m -22.79542,11.397708 v 11.39771 h 11.3977 v -11.39771 z m 56.98855,0 v 11.39771 h 11.39771 V 69.263006 Z M 80.660738,80.660716 V 92.058427 H 92.058452 V 80.660716 Z M 56.988563,92.058427 V 103.45614 H 68.386277 V 92.058427 Z m 114.853867,0 v 11.397713 h 12.27446 V 92.058427 Z M 56.988563,126.25156 v 11.39771 h 11.397714 v -11.39771 z m 92.058447,11.39771 v 11.39771 h 11.39771 v -11.39771 z m -80.660733,11.39771 v 12.27446 h 12.274461 v -12.27446 z m 57.865313,0 v 12.27446 h 11.3977 v -12.27446 z m -22.79542,12.27446 v 11.3977 h 11.3977 v -11.3977 z" />
    <path
       fill="#c3c7cb"
       d="m 184.11689,103.45614 v 22.79542 h -12.27446 v 11.39771 h 23.67218 v -11.39771 -22.79542 z m -12.27446,34.19313 h -11.39771 v 11.39771 h 11.39771 z m -34.19314,11.39771 v 12.27446 h 11.39772 v -12.27446 z m -22.79542,12.27446 v 11.3977 h 11.39772 v -11.3977 z" />
    <path
       fill="#ff00ff"
       d="m 149.04701,69.263006 v 11.39771 h 11.39771 v -11.39771 z m 11.39771,11.39771 v 22.795424 h 11.39771 V 80.660716 Z m 11.39771,22.795424 v 22.79542 h 12.27446 v -22.79542 z m 0,22.79542 h -22.79542 v 11.39771 h 22.79542 z m -22.79542,11.39771 h -22.79542 v 11.39771 h 22.79542 z m -22.79542,11.39771 h -22.79542 v 12.27446 h 22.79542 z m -22.79542,12.27446 H 92.058452 v 11.3977 h 11.397718 z" />
    <path
       fill="#aa55aa"
       d="m 137.64929,69.263006 v 11.39771 H 114.85387 V 92.058427 H 92.058452 V 103.45614 H 68.386277 v 22.79542 h 12.274461 v 22.79542 h 11.397714 v 12.27446 h 11.397718 v -12.27446 h 22.79542 v -11.39771 h 22.79542 v -11.39771 h 22.79542 V 103.45614 H 160.44472 V 80.660716 h -11.39771 v -11.39771 z" />
    <path
       fill="#000000"
       d="M 355.95898 57.865234 L 355.95898 69.263672 L 344.5625 69.263672 L 344.5625 80.660156 L 333.16406 80.660156 L 333.16406 103.45703 L 321.76562 103.45703 L 321.76562 126.25195 L 310.36914 126.25195 L 310.36914 149.04688 L 298.9707 149.04688 L 298.9707 172.71875 L 287.57227 172.71875 L 287.57227 184.11719 L 252.50391 184.11719 L 252.50391 195.51367 L 229.70703 195.51367 L 229.70703 206.91211 L 195.51367 206.91211 L 195.51367 218.31055 L 171.8418 218.31055 L 171.8418 229.70703 L 137.64844 229.70703 L 137.64844 241.10547 L 114.85352 241.10547 L 114.85352 253.37891 L 80.660156 253.37891 L 80.660156 264.77734 L 56.988281 264.77734 L 56.988281 276.17578 L 45.591797 276.17578 L 45.591797 321.76562 L 56.988281 321.76562 L 56.988281 345.4375 L 68.386719 345.4375 L 68.386719 379.63086 L 80.660156 379.63086 L 80.660156 402.42773 L 92.058594 402.42773 L 92.058594 425.22266 L 103.45703 425.22266 L 103.45703 448.89453 L 114.85352 448.89453 L 114.85352 471.68945 L 126.25195 471.68945 L 126.25195 505.88281 L 137.64844 505.88281 L 137.64844 528.67773 L 149.04688 528.67773 L 149.04688 563.74805 L 160.44531 563.74805 L 160.44531 586.54297 L 171.8418 586.54297 L 171.8418 609.33984 L 184.11719 609.33984 L 184.11719 633.01172 L 195.51367 633.01172 L 195.51367 644.4082 L 241.10547 644.4082 L 241.10547 633.01172 L 276.17578 633.01172 L 276.17578 620.73633 L 310.36914 620.73633 L 310.36914 609.33984 L 344.5625 609.33984 L 344.5625 597.94141 L 379.63086 597.94141 L 379.63086 586.54297 L 402.42773 586.54297 L 402.42773 575.14648 L 436.61914 575.14648 L 436.61914 563.74805 L 471.68945 563.74805 L 471.68945 552.34961 L 494.48633 552.34961 L 494.48633 540.95312 L 517.28125 540.95312 L 517.28125 528.67773 L 551.47461 528.67773 L 551.47461 517.28125 L 586.54297 517.28125 L 586.54297 505.88281 L 609.33984 505.88281 L 609.33984 494.48438 L 643.5332 494.48438 L 643.5332 483.08789 L 667.20508 483.08789 L 667.20508 471.68945 L 678.60156 471.68945 L 678.60156 460.29297 L 690 460.29297 L 690 413.82422 L 678.60156 413.82422 L 678.60156 391.0293 L 667.20508 391.0293 L 667.20508 356.83594 L 655.80664 356.83594 L 655.80664 333.16406 L 643.5332 333.16406 L 643.5332 310.36914 L 632.13477 310.36914 L 632.13477 287.57227 L 620.73633 287.57227 L 620.73633 264.77734 L 609.33984 264.77734 L 609.33984 229.70703 L 597.94141 229.70703 L 597.94141 206.91211 L 586.54297 206.91211 L 586.54297 172.71875 L 575.14648 172.71875 L 575.14648 149.04688 L 563.74805 149.04688 L 563.74805 126.25195 L 551.47461 126.25195 L 551.47461 114.85352 L 540.07617 114.85352 L 540.07617 103.45703 L 505.88281 103.45703 L 505.88281 114.85352 L 528.67773 114.85352 L 528.67773 126.25195 L 540.07617 126.25195 L 540.07617 149.04688 L 551.47461 149.04688 L 551.47461 184.11719 L 563.74805 184.11719 L 563.74805 206.91211 L 575.14648 206.91211 L 575.14648 229.70703 L 586.54297 229.70703 L 586.54297 264.77734 L 597.94141 264.77734 L 597.94141 287.57227 L 609.33984 287.57227 L 609.33984 310.36914 L 620.73633 310.36914 L 620.73633 345.4375 L 632.13477 345.4375 L 632.13477 368.23438 L 643.5332 368.23438 L 643.5332 391.0293 L 655.80664 391.0293 L 655.80664 413.82422 L 667.20508 413.82422 L 667.20508 460.29297 L 643.5332 460.29297 L 643.5332 471.68945 L 609.33984 471.68945 L 609.33984 483.08789 L 586.54297 483.08789 L 586.54297 494.48438 L 551.47461 494.48438 L 551.47461 505.88281 L 517.28125 505.88281 L 517.28125 517.28125 L 494.48633 517.28125 L 494.48633 528.67773 L 459.41602 528.67773 L 459.41602 540.95312 L 436.61914 540.95312 L 436.61914 552.34961 L 402.42773 552.34961 L 402.42773 563.74805 L 368.23438 563.74805 L 368.23438 575.14648 L 344.5625 575.14648 L 344.5625 586.54297 L 310.36914 586.54297 L 310.36914 597.94141 L 276.17578 597.94141 L 276.17578 609.33984 L 241.10547 609.33984 L 241.10547 620.73633 L 218.31055 620.73633 L 206.91211 620.73633 L 206.91211 609.33984 L 195.51367 609.33984 L 195.51367 586.54297 L 184.11719 586.54297 L 184.11719 552.34961 L 171.8418 552.34961 L 171.8418 528.67773 L 160.44531 528.67773 L 160.44531 505.88281 L 149.04688 505.88281 L 149.04688 471.68945 L 137.64844 471.68945 L 137.64844 448.89453 L 126.25195 448.89453 L 126.25195 425.22266 L 114.85352 425.22266 L 114.85352 391.0293 L 103.45703 391.0293 L 103.45703 368.23438 L 92.058594 368.23438 L 92.058594 345.4375 L 80.660156 345.4375 L 80.660156 321.76562 L 68.386719 321.76562 L 68.386719 287.57227 L 80.660156 287.57227 L 80.660156 276.17578 L 103.45703 276.17578 L 103.45703 264.77734 L 137.64844 264.77734 L 137.64844 253.37891 L 160.44531 253.37891 L 160.44531 241.10547 L 195.51367 241.10547 L 195.51367 229.70703 L 218.31055 229.70703 L 218.31055 218.31055 L 252.50391 218.31055 L 252.50391 206.91211 L 276.17578 206.91211 L 276.17578 195.51367 L 287.57227 195.51367 L 287.57227 218.31055 L 310.36914 218.31055 L 310.36914 229.70703 L 333.16406 229.70703 L 333.16406 241.10547 L 355.95898 241.10547 L 355.95898 253.37891 L 379.63086 253.37891 L 379.63086 264.77734 L 402.42773 264.77734 L 402.42773 276.17578 L 425.22266 276.17578 L 425.22266 287.57227 L 459.41602 287.57227 L 459.41602 276.17578 L 471.68945 276.17578 L 471.68945 264.77734 L 483.08789 264.77734 L 483.08789 241.10547 L 494.48633 241.10547 L 494.48633 218.31055 L 505.88281 218.31055 L 505.88281 195.51367 L 517.28125 195.51367 L 517.28125 172.71875 L 528.67773 172.71875 L 528.67773 137.64844 L 517.28125 137.64844 L 517.28125 126.25195 L 505.88281 126.25195 L 505.88281 114.85352 L 483.08789 114.85352 L 483.08789 103.45703 L 459.41602 103.45703 L 459.41602 92.058594 L 436.61914 92.058594 L 436.61914 80.660156 L 413.82422 80.660156 L 413.82422 69.263672 L 391.0293 69.263672 L 391.0293 57.865234 L 355.95898 57.865234 z M 355.95898 80.660156 L 368.23438 80.660156 L 391.0293 80.660156 L 391.0293 92.058594 L 413.82422 92.058594 L 413.82422 103.45703 L 436.61914 103.45703 L 436.61914 114.85352 L 459.41602 114.85352 L 459.41602 126.25195 L 483.08789 126.25195 L 483.08789 137.64844 L 505.88281 137.64844 L 505.88281 172.71875 L 494.48633 172.71875 L 494.48633 195.51367 L 483.08789 195.51367 L 483.08789 218.31055 L 471.68945 218.31055 L 471.68945 241.10547 L 459.41602 241.10547 L 459.41602 264.77734 L 425.22266 264.77734 L 425.22266 253.37891 L 402.42773 253.37891 L 402.42773 241.10547 L 379.63086 241.10547 L 379.63086 229.70703 L 355.95898 229.70703 L 355.95898 218.31055 L 333.16406 218.31055 L 333.16406 206.91211 L 310.36914 206.91211 L 310.36914 172.71875 L 321.76562 172.71875 L 321.76562 149.04688 L 333.16406 149.04688 L 333.16406 126.25195 L 344.5625 126.25195 L 344.5625 103.45703 L 355.95898 103.45703 L 355.95898 80.660156 z " />
    <path
       fill="#000000"
       d="m 368.2338,114.85385 v 22.79542 h 11.39771 v -11.39771 h 11.39773 v -11.39771 z m 22.79544,11.39771 v 11.39771 h 22.79539 v -11.39771 z m 22.79539,11.39771 v 11.39771 h 22.79543 v -11.39771 z m 22.79543,11.39771 v 12.27446 h 22.79546 v -12.27446 z m 22.79546,12.27446 v 11.3977 h 12.27443 v -11.3977 z M 368.2338,137.64927 h -12.27447 v 23.67217 h 12.27447 z m -12.27447,23.67217 h -11.39771 v 22.79541 h 11.39771 z" />
    <path
       fill="#868a8e"
       d="m 483.08769,103.45614 v 11.39771 h 22.79539 v -11.39771 z m 22.79539,11.39771 v 11.39771 h 11.39773 v 11.39771 h 11.39773 v 35.06987 h -11.39773 v 22.79543 h -11.39773 v 22.79542 h 22.79546 v -22.79542 h 11.39769 v -34.19313 h 11.39774 v -12.27446 h -11.39774 v -22.79542 h -11.39769 v -11.39771 z m 0,103.45614 h -11.3977 v 22.79542 h -11.39769 v 23.67216 h -11.39774 v 11.39771 h -12.27443 v 11.3977 h -34.19316 v -11.3977 h -22.79542 v -11.39771 h -22.79543 v -11.39771 h -23.67218 v -12.27445 h -22.7954 v 12.27445 h 11.39769 v 11.39771 h 23.67218 v 11.39771 h 22.79544 v 11.3977 h 22.79539 v 11.39773 h 22.79543 v 11.3977 h 11.39773 v -11.3977 h 35.0699 v -22.79543 h 11.39769 v -11.39771 h 11.3977 v -23.67216 h 11.39773 v -11.39772 h -11.39773 z m -172.71915,22.79542 v -11.39772 h -22.79544 v 11.39772 h -22.79544 v 12.27445 h 34.19315 v -12.27445 z m -22.79544,-11.39772 v -11.3977 h -11.39772 v 11.3977 z" />
    <path
       fill="#868a8e"
       d="M 355.95933,80.660716 V 92.058427 H 368.2338 V 80.660716 Z m 23.67218,0 v 11.397711 h 11.39773 V 80.660716 Z m 22.79543,11.397711 v 11.397713 h 11.39769 V 92.058427 Z m 92.05844,45.590843 v 11.39771 h 11.3977 V 137.64927 Z M 321.7662,149.04698 v 12.27446 h 11.39773 v -12.27446 z m 172.71918,12.27446 v 11.3977 h 11.3977 v -11.3977 z m -184.11689,11.3977 v 11.39771 h 11.39771 v -11.39771 z m 172.7192,11.39771 v 11.39772 h 11.39769 v -11.39772 z m -172.7192,11.39772 v 11.39771 h 11.39771 v -11.39771 z m 161.32146,11.39771 v 11.39771 h 11.39774 v -11.39771 z m -12.27443,22.79541 v 11.39772 h 12.27443 v -11.39772 z m -56.98858,11.39772 v 12.27445 h 11.39769 v -12.27445 z m 22.79542,12.27445 v 11.39771 h 11.3977 v -11.39771 z m 22.79543,0 v 11.39771 h 11.39773 v -11.39771 z" />
    <path
       fill="#868a8e"
       d="m 391.02924,114.85385 v 11.39771 h 11.3977 v -11.39771 z m -35.06991,11.39771 v 11.39771 h 12.27447 v -11.39771 z m 57.8653,0 v 11.39771 h 11.39773 v -11.39771 z m 22.79543,11.39771 v 11.39771 h 11.39773 v -11.39771 z m -92.05844,11.39771 v 12.27446 h 11.39771 v -12.27446 z m 114.8539,0 v 12.27446 h 12.27443 v -12.27446 z m -114.8539,35.06987 v 11.39772 h 11.39771 v -11.39772 z m 114.8539,0 v 11.39772 h 12.27443 v -11.39772 z m -91.18172,11.39772 v 11.39771 h 11.39771 v -11.39771 z m 22.79544,11.39771 v 11.39771 h 11.3977 v -11.39771 z m 56.98855,0 v 11.39771 h 11.39773 v -11.39771 z m -34.19316,11.39771 v 11.3977 h 11.39773 v -11.3977 z" />
    <path
       fill="#0000ff"
       d="m 459.41552,172.71914 v 11.39771 h 12.27443 v -11.39771 z m 0,11.39771 h -11.39773 v 22.79543 h 11.39773 z m -11.39773,22.79543 h -11.39773 v 11.39771 h -11.3977 v 11.3977 h 22.79543 z m -22.79543,11.39771 v -11.39771 h -22.79542 v 11.39771 z m -22.79542,-11.39771 v -11.39771 h -22.79543 v 11.39771 z m -22.79543,-11.39771 v -11.39772 h -23.67218 v 11.39772 z" />
    <path
       fill="#0000aa"
       d="m 355.95933,161.32144 h 12.27447 v -23.67217 h 11.39771 v -11.39771 h 11.39773 v 11.39771 h 22.79539 v 11.39771 h 22.79543 v 12.27446 h 22.79546 v 22.79541 h -11.39773 v 22.79543 h -11.39773 v 11.39771 h -11.3977 v -11.39771 h -22.79542 v -11.39771 h -22.79543 v -11.39772 h -23.67218 z" />
    <path
       fill="#000000"
       d="m 505.88308,218.30999 v 11.3977 h 11.39773 v -11.3977 z m 11.39773,11.3977 v 35.06988 h 11.39773 v -35.06988 z m 11.39773,35.06988 v 22.79541 h 11.39769 v -22.79541 z m 11.39769,22.79541 v 22.79543 h 11.39774 v -22.79543 z m 11.39774,22.79543 v 35.06987 h 12.27443 v -35.06987 z m 12.27443,35.06987 v 22.79544 h 11.39773 v -22.79544 z m 11.39773,22.79544 v 22.79543 h 11.3977 v -22.79543 z m 11.3977,22.79543 v 22.79539 h 11.39773 v -22.79539 z m 0,22.79539 h -11.3977 v 11.39773 h 11.3977 z m -11.3977,11.39773 h -23.67216 v 11.39769 h 23.67216 z m -23.67216,11.39769 h -34.19316 v 12.2745 h 34.19316 z m -34.19316,12.2745 h -34.19312 v 11.39769 h 34.19312 z m -34.19312,11.39769 h -23.67217 v 11.3977 h 23.67217 z m -23.67217,11.3977 h -34.19316 v 11.39773 h 34.19316 z m -34.19316,11.39773 h -34.19312 v 11.39769 h 34.19312 z m -34.19312,11.39769 H 368.2338 v 11.39769 h 22.79544 z m -22.79544,11.39769 h -35.06987 v 11.39773 h 35.06987 z m -35.06987,11.39773 h -34.19316 v 11.39773 h 34.19316 z m -34.19316,11.39773 h -35.06989 v 12.27447 h 35.06989 z m -35.06989,12.27447 h -22.79542 v 11.39769 h 22.79542 z m -22.79542,0 v -23.6722 h -11.39772 v 23.6722 z m -11.39772,-23.6722 v -34.19311 h -11.39771 v 34.19311 z m -11.39771,-34.19311 v -22.79543 h -11.39771 v 22.79543 z m -11.39771,-22.79543 v -23.67219 h -11.39771 v 23.67219 z m -11.39771,-23.67219 v -34.19311 h -11.39772 v 34.19311 z m -11.39772,-34.19311 v -22.79543 h -12.27446 v 22.79543 z m -12.27446,-22.79543 v -34.19314 h -11.39771 v 34.19314 z m -11.39771,-34.19314 v -23.67217 h 11.39771 v -11.3977 h -22.79542 v 35.06987 z m 11.39771,-35.06987 h 35.06989 v -11.3977 h -35.06989 z m 35.06989,-11.3977 h 22.79542 v -11.39773 h -22.79542 z m 22.79542,-11.39773 h 34.19314 v -11.3977 h -34.19314 z m 34.19314,-11.3977 h 23.67217 v -11.39771 h -23.67217 z m 23.67217,-11.39771 h 34.19315 v -11.39771 h -34.19315 z m 34.19315,-11.39771 h 11.39773 V 241.10541 H 321.7662 Z" />
    <path
       fill="#000000"
       d="m 321.7662,298.97071 v 11.3977 h -34.19315 v 11.3977 h -23.67217 v 11.39774 h -11.39771 v 12.27443 h -11.39771 v 11.39774 h -11.39772 v 22.7954 h -11.39771 v 34.19312 h 11.39771 v 22.79542 h 11.39772 v 12.2745 h 11.39771 v 11.39769 h 23.67217 v 11.3977 h 68.38628 v -11.3977 h 35.06989 v -11.39769 h 22.79543 v -12.2745 h 11.39769 v -11.39769 h 11.39773 v -11.39773 h 11.3977 v -11.39769 h 11.39773 V 379.63142 H 368.2338 v -11.3977 h 11.39771 v -11.3977 h 11.39773 v -11.39774 h 11.3977 v -12.27443 h 11.39769 v -22.79544 h -34.19312 v -11.3977 z m -11.39771,22.7954 h 80.66075 v 11.39774 h -11.39773 v 12.27443 H 368.2338 v 11.39774 h -12.27447 v 11.3977 h -11.39771 v 22.79543 h 80.66074 v 11.3977 h -11.39773 v 11.39769 h -11.39769 v 11.39773 h -11.3977 v 11.39769 H 368.2338 v 12.2745 H 263.90088 v -12.2745 h -11.39771 v -11.39769 h -11.39771 v -56.98855 h 11.39771 v -11.3977 h 11.39771 v -11.39774 h 12.27446 v -12.27443 h 34.19315 z" />
    <path
       fill="#868a8e"
       d="m 263.90088,253.37986 v 11.39771 h 23.67217 v -11.39771 z m 0,11.39771 h -34.19314 v 11.39771 h 34.19314 z m -34.19314,11.39771 h -22.79542 v 11.3977 h 22.79542 z m -22.79542,11.3977 h -35.06989 v 11.39773 h 35.06989 z m -35.06989,11.39773 h -22.79542 v 11.3977 h 22.79542 z m -22.79542,11.3977 h -11.39772 v 35.06987 h 11.39772 z m 0,35.06987 v 34.19314 h 11.39771 v -34.19314 z m 11.39771,34.19314 v 22.79543 h 11.39771 v -22.79543 z m 11.39771,22.79543 v 34.19311 h 12.27446 v -34.19311 z m 12.27446,34.19311 v 23.67219 h 11.39772 v -23.67219 z m 11.39772,23.67219 v 22.79543 h 11.39771 v -22.79543 z m 11.39771,22.79543 v 34.19311 h 11.39771 v -34.19311 z m 11.39771,34.19311 v 23.6722 h 11.39771 v -23.6722 z m 11.39771,23.6722 v 11.39769 h 11.39772 v -11.39769 z m 298.9708,-287.57303 v 11.39771 h 11.39769 v -11.39771 z m 35.06986,79.78399 v 12.27443 h 11.39773 v -12.27443 z m 22.79543,80.66069 v 11.39773 h 11.39773 v -11.39773 z m -103.45614,46.46761 v 11.3977 h 11.39769 v -11.3977 z m -23.67217,11.3977 v 11.39773 h 12.27443 v -11.39773 z m -34.19316,11.39773 v 11.39769 h 11.3977 v -11.39769 z m -34.19312,11.39769 v 11.39769 h 11.3977 v -11.39769 z m -22.79544,11.39769 v 11.39773 h 11.39771 v -11.39773 z m -35.06987,11.39773 v 11.39773 h 11.39769 v -11.39773 z m -34.19316,11.39773 v 12.27447 h 11.39772 v -12.27447 z m -35.06989,12.27447 v 11.39769 h 12.27446 v -11.39769 z" />
    <path
       fill="#868a8e"
       d="m 563.7484,206.91228 v 11.39771 h 11.39773 v -11.39771 z m -345.43837,11.39771 v 11.3977 h 11.39771 v -11.3977 z m 356.8361,11.3977 v 11.39772 h 11.3977 v -11.39772 z m -414.70141,11.39772 v 12.27445 h 11.39771 v -12.27445 z m -56.98855,23.67216 v 11.39771 h 11.3977 v -11.39771 z m 494.48539,22.79541 v 11.39773 h 11.39769 V 287.57298 Z M 68.386277,310.36841 v 11.3977 h 12.274461 v -11.3977 z m 540.952973,0 v 11.3977 h 11.39773 v -11.3977 z M 80.660738,333.16385 v 12.27443 h 11.397714 v -12.27443 z m 562.871632,57.8653 v 11.3977 h 12.27447 v -11.3977 z m -528.6785,22.79539 v 11.39773 h 11.39772 v -11.39773 z m 540.95297,0 v 11.39773 h 11.3977 v -11.39773 z m -12.27447,35.06992 v 11.39769 h 23.67217 v -11.39769 z m 0,11.39769 h -34.19308 v 11.3977 h 34.19308 z m -34.19308,11.3977 h -22.79546 v 11.39773 h 22.79546 z m -22.79546,11.39773 h -35.06986 v 11.39769 h 35.06986 z m -35.06986,11.39769 h -34.19316 v 11.39769 h 34.19316 z m -34.19316,11.39769 h -22.79543 v 11.39773 h 22.79543 z m -22.79543,11.39773 h -35.06986 v 11.39773 h 35.06986 z m -35.06986,11.39773 h -22.79546 v 12.27447 h 22.79546 z m -22.79546,12.27447 h -34.19312 v 11.39769 h 34.19312 z m -34.19312,11.39769 H 368.2338 v 11.39769 h 34.19314 z M 368.2338,563.74827 H 344.56162 V 575.146 H 368.2338 Z M 344.56162,575.146 h -34.19313 v 11.39769 h 34.19313 z m -34.19313,11.39769 h -34.19315 v 11.39773 h 34.19315 z m -34.19315,11.39773 h -35.06988 v 11.39773 h 35.06988 z m -35.06988,11.39773 h -22.79543 v 11.39769 h 22.79543 z M 149.04701,494.48527 v 11.39769 h 11.39771 v -11.39769 z m 35.06988,80.66073 v 11.39769 h 11.39772 V 575.146 Z" />
    <path
       fill="#868a8e"
       d="m 287.57305,264.77757 v 11.39771 h 11.39772 v -11.39771 z m -115.73062,45.59084 v 11.3977 h 12.27446 v -11.3977 z m 368.2338,0 v 11.3977 h 11.39774 v -11.3977 z m -379.63151,22.79544 v 12.27443 h 11.39771 v -12.27443 z m 11.39771,35.06987 v 11.3977 h 12.27446 v -11.3977 z m 12.27446,22.79543 v 11.3977 h 11.39772 v -11.3977 z m 379.63151,22.79539 v 11.39773 h 11.39773 v -11.39773 z m -368.23379,11.39773 v 11.39769 h 11.39771 v -11.39769 z m 344.56162,0 v 11.39769 h 11.39774 v -11.39769 z m -34.19315,11.39769 v 12.2745 h 11.39773 v -12.2745 z m -57.86529,23.67219 v 11.3977 h 11.39773 v -11.3977 z m -229.70776,11.3977 v 11.39773 h 11.39771 v -11.39773 z m 195.5146,0 v 11.39773 h 11.39773 v -11.39773 z m -57.8653,22.79542 v 11.39769 h 12.27447 v -11.39769 z m -126.25159,11.39769 v 11.39773 h 11.39772 v -11.39773 z m 92.05846,0 v 11.39773 h 11.39773 v -11.39773 z m -34.19315,11.39773 v 11.39773 h 11.39772 v -11.39773 z m -46.46759,11.39773 v 12.27447 h 22.79542 v -12.27447 z" />
    <path
       fill="#868a8e"
       d="m 505.88308,298.97071 v 11.3977 h 11.39773 v -11.3977 z m 0,11.3977 h -34.19313 v 11.3977 h 34.19313 z m -34.19313,11.3977 h -23.67216 v 11.39774 h 23.67216 z" />
    <path
       fill="#868a8e"
       d="m 517.28081,333.16385 v 12.27443 h 11.39773 v -12.27443 z m 0,12.27443 h -34.19312 v 11.39774 h 34.19312 z m -34.19312,11.39774 h -23.67217 v 11.3977 h 23.67217 z" />
    <path
       fill="#868a8e"
       d="m 528.67854,368.23372 v 11.3977 h 11.39769 v -11.3977 z m 0,11.3977 h -34.19316 v 11.39773 h 34.19316 z m -34.19316,11.39773 h -22.79543 v 11.3977 h 22.79543 z" />
    <path
       fill="#868a8e"
       d="m 298.97077,298.97071 v 11.3977 h 22.79543 v -11.3977 z m 80.66074,0 v 11.3977 h 22.79543 v -11.3977 z m -103.45617,11.3977 v 11.3977 h 11.39771 v -11.3977 z m 137.64929,0 v 22.79544 h 11.39773 v -22.79544 z m 0,22.79544 h -11.39769 v 12.27443 h 11.39769 z m -11.39769,12.27443 h -11.3977 v 11.39774 h 11.3977 z m -11.3977,11.39774 h -11.39773 v 11.3977 H 368.2338 v 11.3977 h 79.78399 v -11.3977 H 391.02924 Z M 252.50317,321.76611 v 11.39774 h 11.39771 v -11.39774 z m 0,11.39774 h -11.39771 v 12.27443 h 11.39771 z m -11.39771,12.27443 h -11.39772 v 11.39774 h 11.39772 z m -22.79543,22.79544 v 11.3977 h 11.39771 v -11.3977 z m 218.31003,34.19313 v 11.39769 h 11.39773 v -11.39769 z m 0,11.39769 h -11.3977 v 11.39773 h 11.3977 z m -11.3977,11.39773 h -11.39773 v 11.39769 h 11.39773 z M 218.31003,413.82454 v 11.39773 h 11.39771 v -11.39773 z m 11.39771,22.79542 v 12.2745 h 11.39772 v -12.2745 z m 11.39772,12.2745 v 11.39769 h 11.39771 v -11.39769 z m 138.52605,0 v 11.39769 h 11.39773 v -11.39769 z m -115.73063,11.39769 v 11.3977 h 12.27446 v -11.3977 z m 80.66074,0 v 11.3977 h 23.67218 v -11.3977 z" />
    <path
       fill="#c3c7cb"
       d="m 494.48538,298.97071 v 11.3977 h 11.3977 v -11.3977 z m 11.3977,11.3977 v 11.3977 h 11.39773 v -11.3977 z m -46.46756,0 v 11.3977 h 12.27443 v -11.3977 z m 12.27443,11.3977 v 11.39774 h 11.39774 v -11.39774 z" />
    <path
       fill="#c3c7cb"
       d="m 505.88308,333.16385 v 12.27443 h 11.39773 v -12.27443 z m 11.39773,12.27443 v 11.39774 h 11.39773 v -11.39774 z m -34.19312,11.39774 v 11.3977 h 11.39769 v -11.3977 z" />
    <path
       fill="#c3c7cb"
       d="m 517.28081,368.23372 v 11.3977 h 11.39773 v -11.3977 z m 11.39773,11.3977 v 11.39773 h 11.39769 v -11.39773 z m 11.39769,0 h 11.39774 v -11.3977 h -11.39774 z m -56.98854,0 v 11.39773 h 11.39769 v -11.39773 z m 11.39769,11.39773 v 11.3977 h 11.3977 v -11.3977 z" />
    <path
       fill="#c3c7cb"
       d="m 321.7662,253.37986 v 11.39771 h 11.39773 v -11.39771 z m -22.79543,11.39771 v 11.39771 h 11.39772 v -11.39771 z m -35.06989,11.39771 v 11.3977 h 23.67217 v -11.3977 z m -34.19314,11.3977 v 11.39773 h 11.39772 v -11.39773 z m -22.79542,11.39773 v 11.3977 h 11.39771 v -11.3977 z m 0,11.3977 h -22.79543 v 11.3977 h 22.79543 z m -46.4676,11.3977 v 11.39774 h 11.39771 v -11.39774 z" />
    <path
       fill="#c3c7cb"
       d="m 540.07623,161.32144 v 34.19313 h -11.39769 v 11.39771 h 11.39769 v 22.79541 h 11.39774 v 35.06988 h 12.27443 v 22.79541 h 11.39773 v 22.79543 h 11.3977 v 35.06987 h 11.39773 v 22.79544 h 11.39769 v 22.79543 h 11.39773 v 45.59081 h -22.79542 v 12.2745 h -22.79543 v 11.39769 h -23.67216 v 11.3977 h -22.79543 v 11.39773 h -34.19316 v 11.39769 h -35.06986 v 11.39769 h -22.79546 v 11.39773 h -34.19312 v 11.39773 H 368.2338 v 12.27447 h -23.67218 v 11.39769 h -34.19313 v 11.39769 h -57.86532 v -11.39769 h -22.79543 v -11.39769 h -11.39771 v -23.6722 h -11.39771 v -34.19311 h -11.39771 v -22.79543 h -11.39772 v -23.67219 h -12.27446 v -34.19311 h -11.39771 v -22.79543 h -11.39771 v -34.19314 h -11.39772 v -35.06987 h 11.39772 v -11.3977 h 22.79542 v -11.39773 h 35.06989 v -11.3977 h 22.79542 v -11.39771 h 34.19314 v -11.39771 h 23.67217 v -12.27445 h 22.79544 v -11.39772 h -11.39772 v -11.3977 h -22.79543 v 11.3977 h -23.67217 v 11.39772 h -34.19314 v 12.27445 h -22.79542 v 11.39771 h -35.06989 v 11.39771 h -22.79543 v 11.3977 h -34.19312 v 11.39773 H 92.058452 v 11.3977 h 11.397718 v 35.06987 h 11.3977 v 22.79544 h 11.39772 v 22.79543 h 11.3977 v 34.19312 h 11.39772 v 23.67219 h 11.39771 v 22.79539 h 11.39771 v 34.19311 h 12.27446 v 22.79546 h 11.39772 v 23.67216 h 11.39771 v 34.19311 h 11.39771 v 22.79546 h 22.79543 v -11.39773 h 35.06988 v -11.39773 h 34.19315 V 575.146 h 34.19313 v -11.39773 h 23.67218 v -11.39769 h 34.19314 v -11.39769 h 34.19312 v -12.27447 h 22.79546 v -11.39773 h 35.06986 v -11.39773 h 22.79543 v -11.39769 h 34.19316 v -11.39769 h 35.06986 v -11.39773 h 22.79542 v -11.3977 h 34.19312 v -11.39769 h 23.67217 v -23.67219 h -11.3977 v -22.79542 h -12.27447 v -34.19313 h -11.39769 v -22.79544 h -11.3977 v -23.67217 h -11.39773 v -22.7954 h -11.39769 v -34.19314 h -11.39773 v -23.67216 h -11.3977 V 218.30999 H 563.7484 v -34.19314 h -12.27443 v -22.79541 z" />
    <path
       fill="#0000aa"
       d="m 276.17534,333.16385 v 12.27443 h 11.39771 v -12.27443 z m 0,12.27443 h -12.27446 v 11.39774 h 12.27446 z m -35.06988,22.79544 v 11.3977 h 11.39771 v -11.3977 z m 0,45.59082 v 11.39773 h 11.39771 v -11.39773 z" />
    <path
       fill="#0000ff"
       d="m 287.57305,333.16385 h 22.79544 v 12.27443 h 11.39771 v 11.39774 h 11.39773 v 11.3977 h 11.39769 v 22.79543 H 321.7662 v 11.3977 h -22.79543 v 11.39769 h -22.79543 v 11.39773 h -23.67217 v -11.39773 h -11.39771 v -34.19312 h 11.39771 v -22.7954 h 23.67217 v -11.39774 h 11.39771 z" />
    <path
       fill="#00aa55"
       d="m 310.36849,321.76611 h 80.66075 v 11.39774 h -11.39773 v 12.27443 H 368.2338 v 11.39774 h -12.27447 v 11.3977 h -22.7954 v -11.3977 H 321.7662 v -11.39774 h -11.39771 z" />
    <path
       fill="#aa55aa"
       d="m 413.82463,391.02915 v 11.3977 h 11.39773 v -11.3977 z m 0,11.3977 h -11.39769 v 11.39769 h 11.39769 z m -11.39769,11.39769 h -11.3977 v 11.39773 h 11.3977 z m -11.3977,11.39773 h -11.39773 v 11.39769 h 11.39773 z m -138.52607,0 v 11.39769 h 11.39771 v -11.39769 z m 11.39771,11.39769 v 12.2745 h 23.67217 v -12.2745 z m 80.66074,0 v 12.2745 h 23.67218 v -12.2745 z" />
    <path
       fill="#ff00ff"
       d="m 321.7662,391.02915 h 92.05843 v 11.3977 h -11.39769 v 11.39769 h -11.3977 v 11.39773 h -11.39773 v 11.39769 h -35.06989 v 12.2745 h -56.98857 v -12.2745 h -23.67217 v -11.39769 h 12.27446 v -11.39773 h 22.79543 v -11.39769 h 22.79543 z" />
  </g>
</svg>
